HIERARCHY
ROOT root
{
	OFFSET	0.000000	0.000000	0.000000
	CHANNELS 6 Xposition Yposition Zposition Zrotation Yrotation Xrotation
	JOINT lhipjoint
	{
		OFFSET	0.000000	0.000000	0.000000
		CHANNELS 3 Zrotation Yrotation Xrotation
		JOINT lfemur
		{
			OFFSET	1.748569	-1.855662	0.691966
			CHANNELS 3 Zrotation Yrotation Xrotation
			JOINT ltibia
			{
				OFFSET	2.400029	-6.594030	0.000000
				CHANNELS 3 Zrotation Yrotation Xrotation
				JOINT lfoot
				{
					OFFSET	2.821691	-7.752540	0.000000
					CHANNELS 3 Zrotation Yrotation Xrotation
					JOINT ltoes
					{
						OFFSET	0.164659	-0.452396	2.268896
						CHANNELS 3 Zrotation Yrotation Xrotation
						End Site
						{
							OFFSET	0.000000	-0.000000	1.164860
						}
					}
				}
			}
		}
	}
	JOINT rhipjoint
	{
		OFFSET	0.000000	0.000000	0.000000
		CHANNELS 3 Zrotation Yrotation Xrotation
		JOINT rfemur
		{
			OFFSET	-1.641693	-1.855661	0.691966
			CHANNELS 3 Zrotation Yrotation Xrotation
			JOINT rtibia
			{
				OFFSET	-2.418139	-6.643787	0.000000
				CHANNELS 3 Zrotation Yrotation Xrotation
				JOINT rfoot
				{
					OFFSET	-2.805883	-7.709107	0.000000
					CHANNELS 3 Zrotation Yrotation Xrotation
					JOINT rtoes
					{
						OFFSET	-0.190980	-0.524716	2.254014
						CHANNELS 3 Zrotation Yrotation Xrotation
						End Site
						{
							OFFSET	-0.000000	-0.000000	1.163330
						}
					}
				}
			}
		}
	}
	JOINT lowerback
	{
		OFFSET	0.000000	0.000000	0.000000
		CHANNELS 3 Zrotation Yrotation Xrotation
		JOINT upperback
		{
			OFFSET	-0.028284	2.146896	-0.110610
			CHANNELS 3 Zrotation Yrotation Xrotation
			JOINT thorax
			{
				OFFSET	-0.001672	2.152996	0.007593
				CHANNELS 3 Zrotation Yrotation Xrotation
				JOINT lowerneck
				{
					OFFSET	0.009440	2.153398	0.059488
					CHANNELS 3 Zrotation Yrotation Xrotation
					JOINT upperneck
					{
						OFFSET	-0.092956	1.901179	0.071965
						CHANNELS 3 Zrotation Yrotation Xrotation
						JOINT head
						{
							OFFSET	0.084895	1.895262	-0.246037
							CHANNELS 3 Zrotation Yrotation Xrotation
							End Site
							{
								OFFSET	0.031856	1.921087	-0.094834
							}
						}
					}
				}
				JOINT lclavicle
				{
					OFFSET	0.009440	2.153398	0.059488
					CHANNELS 3 Zrotation Yrotation Xrotation
					JOINT lhumerus
					{
						OFFSET	3.215687	1.446445	-0.037204
						CHANNELS 3 Zrotation Yrotation Xrotation
						JOINT lradius
						{
							OFFSET	5.476510	-0.000000	-0.000000
							CHANNELS 3 Zrotation Yrotation Xrotation
							JOINT lwrist
							{
								OFFSET	3.090580	-0.000000	-0.000000
								CHANNELS 3 Zrotation Yrotation Xrotation
								JOINT lhand
								{
									OFFSET	1.545290	-0.000000	-0.000000
									CHANNELS 3 Zrotation Yrotation Xrotation
									JOINT lfingers
									{
										OFFSET	0.771611	-0.000000	-0.000000
										CHANNELS 3 Zrotation Yrotation Xrotation
										End Site
										{
											OFFSET	0.622093	-0.000000	-0.000000
										}
									}
								}
								JOINT lthumb
								{
									OFFSET	1.545290	-0.000000	-0.000000
									CHANNELS 3 Zrotation Yrotation Xrotation
									End Site
									{
										OFFSET	0.631591	-0.000000	0.631591
									}
								}
							}
						}
					}
				}
				JOINT rclavicle
				{
					OFFSET	0.009440	2.153398	0.059488
					CHANNELS 3 Zrotation Yrotation Xrotation
					JOINT rhumerus
					{
						OFFSET	-3.386928	1.289042	-0.070931
						CHANNELS 3 Zrotation Yrotation Xrotation
						JOINT rradius
						{
							OFFSET	-5.141820	-0.000000	-0.000000
							CHANNELS 3 Zrotation Yrotation Xrotation
							JOINT rwrist
							{
								OFFSET	-3.355650	-0.000000	-0.000000
								CHANNELS 3 Zrotation Yrotation Xrotation
								JOINT rhand
								{
									OFFSET	-1.677820	-0.000000	-0.000000
									CHANNELS 3 Zrotation Yrotation Xrotation
									JOINT rfingers
									{
										OFFSET	-0.801042	-0.000000	-0.000000
										CHANNELS 3 Zrotation Yrotation Xrotation
										End Site
										{
											OFFSET	-0.645821	-0.000000	-0.000000
										}
									}
								}
								JOINT rthumb
								{
									OFFSET	-1.677820	-0.000000	-0.000000
									CHANNELS 3 Zrotation Yrotation Xrotation
									End Site
									{
										OFFSET	-0.655681	-0.000000	0.655681
									}
								}
							}
						}
					}
				}
			}
		}
	}
}
MOTION
Frames:	7
Frame Time:	0.008333
-17.140000	17.817000	7.283950	8.466870	69.779500	14.738800	0.000000	0.000000	0.000000	-29.359943	3.082587	-15.023609	1.615788	8.015210	22.760289	2.203451	7.292270	-31.397248	0.179580	2.729578	7.526764	0.000000	0.000000	0.000000	26.548340	-16.158198	-37.212547	-3.630282	-11.651458	34.509864	-1.010402	-22.560567	-37.568660	-1.128466	-6.747220	18.968615	-3.312420	2.819760	2.970580	-1.456340	3.730500	2.457510	0.270132	1.849060	0.748384	-0.947543	6.382220	-5.067970	-0.806569	10.116800	26.206700	0.845373	4.832530	9.033950	0.000000	-0.000000	0.000000	-79.364367	5.710585	16.165719	18.162348	-28.364546	-4.626111	0.000000	0.000000	-14.552600	7.216225	27.863319	3.386600	-7.125020	0.000000	-0.000000	-25.077676	56.213711	-7.216429	0.000000	-0.000000	0.000000	85.570436	-3.384980	19.691736	-17.276761	27.221182	-4.213156	0.000000	0.000000	-5.816960	-11.170060	16.656870	-3.239513	7.125020	-0.000000	-0.000000	11.060940	-13.246572	8.393404
-17.154600	17.809900	7.285280	8.831860	70.356500	15.062000	0.000000	0.000000	0.000000	-29.321228	2.925736	-14.965512	1.611582	8.005274	22.730102	2.156028	7.287019	-31.106691	0.170702	2.661597	7.337985	0.000000	0.000000	0.000000	26.442077	-16.536544	-37.645841	-3.770451	-11.848512	35.198167	-0.988498	-22.329269	-37.201099	-1.070013	-6.575859	18.464737	-3.417270	2.793390	3.011470	-1.576750	3.694050	2.458610	0.204044	1.831630	0.729469	-0.908191	6.312560	-5.113160	-0.821115	10.020000	26.180000	0.826982	4.790170	9.035490	0.000000	-0.000000	0.000000	-79.194023	5.605346	15.033508	17.929690	-28.067043	-4.516111	0.000000	0.000000	-14.282900	7.157948	28.035018	3.378008	-7.125020	0.000000	-0.000000	-25.256490	56.356297	-7.361947	0.000000	-0.000000	0.000000	85.713592	-3.490736	19.673645	-17.403600	27.386763	-4.271338	-0.000000	-0.000000	-5.763530	-11.200872	16.560823	-3.230493	7.125020	-0.000000	-0.000000	11.041248	-13.339785	8.355798
-17.167400	17.804200	7.284390	9.132760	70.941100	15.313100	0.000000	0.000000	0.000000	-29.260923	2.777483	-14.933314	1.616858	8.017733	22.767955	2.111279	6.986680	-30.660122	0.188788	2.798303	7.717712	0.000000	0.000000	0.000000	26.269051	-16.779290	-37.985109	-3.912271	-12.042739	35.883334	-1.074389	-21.873771	-37.147520	-1.114971	-6.708101	18.853426	-3.529310	2.762030	3.045230	-1.627910	3.650690	2.474740	0.213742	1.809560	0.725197	-0.972679	6.239920	-5.129440	-0.817966	9.923670	26.107800	0.828563	4.741500	9.009300	-0.000000	0.000000	0.000000	-79.060283	5.662377	14.451479	17.878670	-28.001528	-4.492132	0.000000	0.000000	-14.306200	7.273962	28.132061	3.444104	-7.125020	0.000000	-0.000000	-25.211463	56.466854	-7.416615	-0.000000	0.000000	0.000000	85.665071	-3.507062	19.927535	-17.430879	27.422295	-4.283894	0.000000	0.000000	-5.952010	-11.599213	16.548622	-3.345869	7.125020	-0.000000	-0.000000	10.777465	-13.319816	8.153211
-17.178200	17.802800	7.282570	9.730130	71.487000	15.862900	0.000000	0.000000	0.000000	-29.326614	2.653681	-14.931899	1.627582	8.042987	22.844723	2.098272	6.646451	-30.387326	0.195265	2.845630	7.849268	0.000000	0.000000	0.000000	26.010253	-17.031363	-38.349925	-4.052724	-12.230236	36.551385	-0.933384	-21.886243	-36.421531	-1.011264	-6.398367	17.944745	-3.802450	2.739930	3.000440	-1.658330	3.620820	2.504130	0.337978	1.791160	0.767372	-1.061690	6.188930	-5.096900	-0.810329	9.860870	26.036000	0.836554	4.708120	8.972910	-0.000000	-0.000000	0.000000	-78.973155	5.799816	14.269250	17.918775	-28.053035	-4.510977	-0.000000	0.000000	-14.710200	7.927429	28.419808	3.791604	-7.125020	0.000000	-0.000000	-24.772477	56.859328	-7.515977	-0.000000	-0.000000	0.000000	85.548438	-3.481164	20.181277	-17.386100	27.363954	-4.263291	0.000000	0.000000	-6.136310	-11.962425	16.589317	-3.461677	7.125020	-0.000000	-0.000000	10.536614	-13.249381	7.980299
-17.186100	17.800900	7.279650	10.024100	72.092100	16.093000	0.000000	0.000000	0.000000	-29.271877	2.472495	-14.824077	1.631205	8.051496	22.870602	2.081981	6.509980	-30.209444	0.176917	2.709368	7.470632	0.000000	0.000000	0.000000	25.850871	-17.358045	-38.654424	-4.195719	-12.416391	37.221366	-0.826807	-21.814919	-35.767588	-0.928675	-6.139045	17.188388	-3.917730	2.720520	2.992430	-1.672390	3.595600	2.533040	0.389446	1.776990	0.796723	-1.153430	6.141150	-5.129090	-0.732784	9.797220	26.066500	0.873958	4.678860	8.980230	0.000000	0.000000	0.000000	-78.957763	5.787798	13.812564	17.841358	-27.953554	-4.474628	0.000000	0.000000	-15.057800	8.413039	28.731044	4.066612	-7.125020	0.000000	-0.000000	-24.515907	57.240833	-7.661669	0.000000	0.000000	0.000000	85.537113	-3.493775	20.049215	-17.360180	27.330149	-4.251384	-0.000000	-0.000000	-6.023770	-12.047265	16.670666	-3.503475	7.125020	-0.000000	-0.000000	10.480283	-13.160971	7.955932
-17.192800	17.801100	7.276630	10.286600	72.688500	16.278900	0.000000	0.000000	0.000000	-29.185655	2.226116	-14.683802	1.632400	8.054301	22.879133	2.019313	6.332446	-29.715047	0.192674	2.826797	7.796912	0.000000	0.000000	0.000000	25.652200	-17.583659	-38.869616	-4.336603	-12.595337	37.871977	-0.764000	-21.721427	-35.315489	-0.881606	-5.985618	16.742701	-3.983350	2.711410	3.000880	-1.695300	3.585650	2.584370	0.403763	1.770890	0.842980	-1.248950	6.073160	-5.183130	-0.666043	9.697420	26.010400	0.903475	4.631040	8.961630	-0.000000	-0.000000	0.000000	-78.979601	5.584262	12.764183	17.591674	-27.631163	-4.358207	-0.000000	0.000000	-14.713500	8.164270	28.467157	3.912003	-7.125020	0.000000	-0.000000	-24.571619	56.951032	-7.505302	-0.000000	-0.000000	0.000000	85.546610	-3.466361	19.824527	-17.320412	27.278235	-4.233142	0.000000	0.000000	-5.894340	-12.003207	16.730876	-3.502528	7.125020	-0.000000	-0.000000	10.509364	-13.104433	7.991488
-17.199900	17.805200	7.274740	10.723900	73.211400	16.652100	0.000000	0.000000	0.000000	-29.165839	2.017207	-14.613466	1.640050	8.072227	22.933674	1.962979	6.145121	-29.249583	0.195177	2.844996	7.847506	0.000000	0.000000	0.000000	25.424725	-17.745470	-39.079143	-4.468375	-12.758870	38.472417	-0.683820	-21.608590	-34.735023	-0.867918	-5.940175	16.610943	-4.278090	2.729010	2.976360	-1.619570	3.606060	2.620720	0.646020	1.775650	0.871531	-1.393310	5.989370	-5.223010	-0.710987	9.615380	25.982200	0.905906	4.576920	8.954790	0.000000	-0.000000	0.000000	-79.143757	5.491347	11.826495	17.425232	-27.414941	-4.281293	0.000000	0.000000	-14.250900	8.200233	28.391203	3.919838	-7.125020	0.000000	-0.000000	-24.481093	56.889776	-7.438346	0.000000	-0.000000	0.000000	85.345016	-3.528897	19.786329	-17.298075	27.249048	-4.222910	0.000000	-0.000000	-5.866570	-12.199405	16.723403	-3.559840	7.125020	-0.000000	-0.000000	10.379517	-13.095394	7.891307
